<mxfile host="app.diagrams.net" modified="2023-04-13T23:27:16.543Z" agent="Mozilla/5.0 (Windows NT 10.0; Win64; x64) AppleWebKit/537.36 (KHTML, like Gecko) Chrome/111.0.0.0 Safari/537.36" version="21.1.7" etag="gMlFMtebR_hdz1XWTm6w" type="github">
  <diagram name="Page-1" id="gBnkIwFhq2_1HUrqE39b">
    <mxGraphModel>
      <root>
        <mxCell id="0" />
        <mxCell id="1" parent="0" />
      </root>
    </mxGraphModel>
  </diagram>
</mxfile>
